<mxfile host="app.diagrams.net" agent="Mozilla/5.0 (Windows NT 10.0; Win64; x64) AppleWebKit/537.36 (KHTML, like Gecko) Chrome/129.0.0.0 Safari/537.36" version="24.7.17">
  <diagram name="Page-1" id="alxZZVMIQb0VcoKswXgU">
    <mxGraphModel dx="1687" dy="967" grid="0" gridSize="10" guides="1" tooltips="1" connect="1" arrows="1" fold="1" page="1" pageScale="1" pageWidth="1169" pageHeight="827" background="none" math="0" shadow="0">
      <root>
        <mxCell id="0" />
        <mxCell id="1" parent="0" />
        <mxCell id="Q0sIho2IhB4wknDSnB5H-2" value="Patients" style="swimlane;fontStyle=0;childLayout=stackLayout;horizontal=1;startSize=26;horizontalStack=0;resizeParent=1;resizeParentMax=0;resizeLast=0;collapsible=1;marginBottom=0;align=center;fontSize=14;sketch=1;hachureGap=4;jiggle=2;curveFitting=1;fontFamily=Architects Daughter;fontSource=https%3A%2F%2Ffonts.googleapis.com%2Fcss%3Ffamily%3DArchitects%2BDaughter;fillColor=#dae8fc;strokeColor=#6c8ebf;" vertex="1" parent="1">
          <mxGeometry x="782" y="450" width="290" height="238" as="geometry" />
        </mxCell>
        <mxCell id="Q0sIho2IhB4wknDSnB5H-3" value="&lt;u&gt;id_patient&lt;span style=&quot;white-space: pre;&quot;&gt;&#x9;&lt;span style=&quot;white-space: pre;&quot;&gt;&#x9;&lt;/span&gt;&lt;/span&gt;&lt;/u&gt;INTEGER AUTO-INCREMENT" style="text;strokeColor=none;fillColor=none;spacingLeft=4;spacingRight=4;overflow=hidden;rotatable=0;points=[[0,0.5],[1,0.5]];portConstraint=eastwest;fontSize=12;whiteSpace=wrap;html=1;fontFamily=Architects Daughter;fontSource=https%3A%2F%2Ffonts.googleapis.com%2Fcss%3Ffamily%3DArchitects%2BDaughter;" vertex="1" parent="Q0sIho2IhB4wknDSnB5H-2">
          <mxGeometry y="26" width="290" height="30" as="geometry" />
        </mxCell>
        <mxCell id="Q0sIho2IhB4wknDSnB5H-35" value="" style="text;strokeColor=none;fillColor=none;align=left;verticalAlign=middle;spacingTop=-1;spacingLeft=4;spacingRight=4;rotatable=0;labelPosition=right;points=[];portConstraint=eastwest;fontFamily=Architects Daughter;fontSource=https%3A%2F%2Ffonts.googleapis.com%2Fcss%3Ffamily%3DArchitects%2BDaughter;" vertex="1" parent="Q0sIho2IhB4wknDSnB5H-2">
          <mxGeometry y="56" width="290" height="14" as="geometry" />
        </mxCell>
        <mxCell id="Q0sIho2IhB4wknDSnB5H-4" value="first_name&lt;span style=&quot;white-space: pre;&quot;&gt;&#x9;&lt;span style=&quot;white-space: pre;&quot;&gt;&#x9;&lt;/span&gt;&lt;/span&gt;VARCHAR(30)" style="text;strokeColor=none;fillColor=none;spacingLeft=4;spacingRight=4;overflow=hidden;rotatable=0;points=[[0,0.5],[1,0.5]];portConstraint=eastwest;fontSize=12;whiteSpace=wrap;html=1;fontFamily=Architects Daughter;fontSource=https%3A%2F%2Ffonts.googleapis.com%2Fcss%3Ffamily%3DArchitects%2BDaughter;" vertex="1" parent="Q0sIho2IhB4wknDSnB5H-2">
          <mxGeometry y="70" width="290" height="30" as="geometry" />
        </mxCell>
        <mxCell id="Q0sIho2IhB4wknDSnB5H-10" value="last_name&lt;span style=&quot;white-space: pre;&quot;&gt;&#x9;&lt;span style=&quot;white-space: pre;&quot;&gt;&#x9;&lt;/span&gt;&lt;/span&gt;VARCHAR(30)" style="text;strokeColor=none;fillColor=none;spacingLeft=4;spacingRight=4;overflow=hidden;rotatable=0;points=[[0,0.5],[1,0.5]];portConstraint=eastwest;fontSize=12;whiteSpace=wrap;html=1;fontFamily=Architects Daughter;fontSource=https%3A%2F%2Ffonts.googleapis.com%2Fcss%3Ffamily%3DArchitects%2BDaughter;" vertex="1" parent="Q0sIho2IhB4wknDSnB5H-2">
          <mxGeometry y="100" width="290" height="30" as="geometry" />
        </mxCell>
        <mxCell id="Q0sIho2IhB4wknDSnB5H-58" value="password&lt;span style=&quot;white-space: pre;&quot;&gt;&#x9;&lt;span style=&quot;white-space: pre;&quot;&gt;&#x9;&lt;/span&gt;&lt;/span&gt;VARCHAR(50)" style="text;strokeColor=none;fillColor=none;spacingLeft=4;spacingRight=4;overflow=hidden;rotatable=0;points=[[0,0.5],[1,0.5]];portConstraint=eastwest;fontSize=12;whiteSpace=wrap;html=1;fontFamily=Architects Daughter;fontSource=https%3A%2F%2Ffonts.googleapis.com%2Fcss%3Ffamily%3DArchitects%2BDaughter;" vertex="1" parent="Q0sIho2IhB4wknDSnB5H-2">
          <mxGeometry y="130" width="290" height="30" as="geometry" />
        </mxCell>
        <mxCell id="Q0sIho2IhB4wknDSnB5H-5" value="email&lt;span style=&quot;white-space: pre;&quot;&gt;&#x9;&lt;/span&gt;&lt;span style=&quot;white-space: pre;&quot;&gt;&#x9;&lt;span style=&quot;white-space: pre;&quot;&gt;&#x9;&lt;/span&gt;&lt;/span&gt;VARCHAR(50) UNIQUE" style="text;strokeColor=none;fillColor=none;spacingLeft=4;spacingRight=4;overflow=hidden;rotatable=0;points=[[0,0.5],[1,0.5]];portConstraint=eastwest;fontSize=12;whiteSpace=wrap;html=1;fontFamily=Architects Daughter;fontSource=https%3A%2F%2Ffonts.googleapis.com%2Fcss%3Ffamily%3DArchitects%2BDaughter;" vertex="1" parent="Q0sIho2IhB4wknDSnB5H-2">
          <mxGeometry y="160" width="290" height="24" as="geometry" />
        </mxCell>
        <mxCell id="Q0sIho2IhB4wknDSnB5H-86" value="adresse&lt;span style=&quot;white-space: pre;&quot;&gt;&#x9;&lt;/span&gt;&lt;span style=&quot;white-space: pre;&quot;&gt;&#x9;&lt;/span&gt;VARCHAR(50)" style="text;strokeColor=none;fillColor=none;spacingLeft=4;spacingRight=4;overflow=hidden;rotatable=0;points=[[0,0.5],[1,0.5]];portConstraint=eastwest;fontSize=12;whiteSpace=wrap;html=1;fontFamily=Architects Daughter;fontSource=https%3A%2F%2Ffonts.googleapis.com%2Fcss%3Ffamily%3DArchitects%2BDaughter;" vertex="1" parent="Q0sIho2IhB4wknDSnB5H-2">
          <mxGeometry y="184" width="290" height="30" as="geometry" />
        </mxCell>
        <mxCell id="Q0sIho2IhB4wknDSnB5H-11" value="phone_number&lt;span style=&quot;white-space: pre;&quot;&gt;&#x9;&lt;/span&gt;VARCHAR(50) UNIQUE" style="text;strokeColor=none;fillColor=none;spacingLeft=4;spacingRight=4;overflow=hidden;rotatable=0;points=[[0,0.5],[1,0.5]];portConstraint=eastwest;fontSize=12;whiteSpace=wrap;html=1;fontFamily=Architects Daughter;fontSource=https%3A%2F%2Ffonts.googleapis.com%2Fcss%3Ffamily%3DArchitects%2BDaughter;" vertex="1" parent="Q0sIho2IhB4wknDSnB5H-2">
          <mxGeometry y="214" width="290" height="24" as="geometry" />
        </mxCell>
        <mxCell id="Q0sIho2IhB4wknDSnB5H-12" value="Appointements" style="swimlane;fontStyle=0;childLayout=stackLayout;horizontal=1;startSize=26;fillColor=#dae8fc;horizontalStack=0;resizeParent=1;resizeParentMax=0;resizeLast=0;collapsible=1;marginBottom=0;whiteSpace=wrap;html=1;sketch=1;hachureGap=4;jiggle=2;curveFitting=1;fontFamily=Architects Daughter;fontSource=https%3A%2F%2Ffonts.googleapis.com%2Fcss%3Ffamily%3DArchitects%2BDaughter;strokeColor=#6c8ebf;" vertex="1" parent="1">
          <mxGeometry x="782" y="220" width="286" height="144" as="geometry" />
        </mxCell>
        <mxCell id="Q0sIho2IhB4wknDSnB5H-13" value="&lt;u&gt;id_appointement&lt;span style=&quot;white-space: pre;&quot;&gt;&#x9;&lt;/span&gt;&lt;/u&gt;INTEGER AUTO-INCREMENT" style="text;strokeColor=none;fillColor=none;align=left;verticalAlign=top;spacingLeft=4;spacingRight=4;overflow=hidden;rotatable=0;points=[[0,0.5],[1,0.5]];portConstraint=eastwest;whiteSpace=wrap;html=1;fontFamily=Architects Daughter;fontSource=https%3A%2F%2Ffonts.googleapis.com%2Fcss%3Ffamily%3DArchitects%2BDaughter;" vertex="1" parent="Q0sIho2IhB4wknDSnB5H-12">
          <mxGeometry y="26" width="286" height="26" as="geometry" />
        </mxCell>
        <mxCell id="Q0sIho2IhB4wknDSnB5H-33" value="" style="text;strokeColor=none;fillColor=none;align=left;verticalAlign=middle;spacingTop=-1;spacingLeft=4;spacingRight=4;rotatable=0;labelPosition=right;points=[];portConstraint=eastwest;fontFamily=Architects Daughter;fontSource=https%3A%2F%2Ffonts.googleapis.com%2Fcss%3Ffamily%3DArchitects%2BDaughter;" vertex="1" parent="Q0sIho2IhB4wknDSnB5H-12">
          <mxGeometry y="52" width="286" height="14" as="geometry" />
        </mxCell>
        <mxCell id="Q0sIho2IhB4wknDSnB5H-14" value="id_patient&lt;span style=&quot;white-space: pre;&quot;&gt;&#x9;&lt;/span&gt;&lt;span style=&quot;white-space: pre;&quot;&gt;&#x9;&lt;/span&gt;INTEGER" style="text;strokeColor=none;fillColor=none;align=left;verticalAlign=top;spacingLeft=4;spacingRight=4;overflow=hidden;rotatable=0;points=[[0,0.5],[1,0.5]];portConstraint=eastwest;whiteSpace=wrap;html=1;fontFamily=Architects Daughter;fontSource=https%3A%2F%2Ffonts.googleapis.com%2Fcss%3Ffamily%3DArchitects%2BDaughter;" vertex="1" parent="Q0sIho2IhB4wknDSnB5H-12">
          <mxGeometry y="66" width="286" height="26" as="geometry" />
        </mxCell>
        <mxCell id="Q0sIho2IhB4wknDSnB5H-23" value="id_doctor&lt;span style=&quot;white-space: pre;&quot;&gt;&#x9;&lt;/span&gt;&lt;span style=&quot;white-space: pre;&quot;&gt;&#x9;&lt;/span&gt;INTEGER" style="text;strokeColor=none;fillColor=none;align=left;verticalAlign=top;spacingLeft=4;spacingRight=4;overflow=hidden;rotatable=0;points=[[0,0.5],[1,0.5]];portConstraint=eastwest;whiteSpace=wrap;html=1;fontFamily=Architects Daughter;fontSource=https%3A%2F%2Ffonts.googleapis.com%2Fcss%3Ffamily%3DArchitects%2BDaughter;" vertex="1" parent="Q0sIho2IhB4wknDSnB5H-12">
          <mxGeometry y="92" width="286" height="26" as="geometry" />
        </mxCell>
        <mxCell id="Q0sIho2IhB4wknDSnB5H-15" value="date&lt;span style=&quot;white-space: pre;&quot;&gt;&#x9;&lt;/span&gt;&lt;span style=&quot;white-space: pre;&quot;&gt;&#x9;&lt;/span&gt;&lt;span style=&quot;white-space: pre;&quot;&gt;&#x9;&lt;/span&gt;TIMESTAMP" style="text;strokeColor=none;fillColor=none;align=left;verticalAlign=top;spacingLeft=4;spacingRight=4;overflow=hidden;rotatable=0;points=[[0,0.5],[1,0.5]];portConstraint=eastwest;whiteSpace=wrap;html=1;fontFamily=Architects Daughter;fontSource=https%3A%2F%2Ffonts.googleapis.com%2Fcss%3Ffamily%3DArchitects%2BDaughter;" vertex="1" parent="Q0sIho2IhB4wknDSnB5H-12">
          <mxGeometry y="118" width="286" height="26" as="geometry" />
        </mxCell>
        <mxCell id="Q0sIho2IhB4wknDSnB5H-16" value="Doctors" style="swimlane;fontStyle=0;childLayout=stackLayout;horizontal=1;startSize=26;horizontalStack=0;resizeParent=1;resizeParentMax=0;resizeLast=0;collapsible=1;marginBottom=0;align=center;fontSize=14;sketch=1;hachureGap=4;jiggle=2;curveFitting=1;fontFamily=Architects Daughter;fontSource=https%3A%2F%2Ffonts.googleapis.com%2Fcss%3Ffamily%3DArchitects%2BDaughter;fillColor=#dae8fc;strokeColor=#6c8ebf;" vertex="1" parent="1">
          <mxGeometry x="380" y="70" width="290" height="232" as="geometry" />
        </mxCell>
        <mxCell id="Q0sIho2IhB4wknDSnB5H-17" value="&lt;u&gt;id_doctor&lt;span style=&quot;white-space: pre;&quot;&gt;&#x9;&lt;span style=&quot;white-space: pre;&quot;&gt;&#x9;&lt;/span&gt;&lt;/span&gt;&lt;/u&gt;INTEGER AUTO-INCREMENT" style="text;strokeColor=none;fillColor=none;spacingLeft=4;spacingRight=4;overflow=hidden;rotatable=0;points=[[0,0.5],[1,0.5]];portConstraint=eastwest;fontSize=12;whiteSpace=wrap;html=1;fontFamily=Architects Daughter;fontSource=https%3A%2F%2Ffonts.googleapis.com%2Fcss%3Ffamily%3DArchitects%2BDaughter;" vertex="1" parent="Q0sIho2IhB4wknDSnB5H-16">
          <mxGeometry y="26" width="290" height="30" as="geometry" />
        </mxCell>
        <mxCell id="Q0sIho2IhB4wknDSnB5H-34" value="" style="text;strokeColor=none;fillColor=none;align=left;verticalAlign=middle;spacingTop=-1;spacingLeft=4;spacingRight=4;rotatable=0;labelPosition=right;points=[];portConstraint=eastwest;fontFamily=Architects Daughter;fontSource=https%3A%2F%2Ffonts.googleapis.com%2Fcss%3Ffamily%3DArchitects%2BDaughter;" vertex="1" parent="Q0sIho2IhB4wknDSnB5H-16">
          <mxGeometry y="56" width="290" height="14" as="geometry" />
        </mxCell>
        <mxCell id="Q0sIho2IhB4wknDSnB5H-18" value="first_name&lt;span style=&quot;white-space: pre;&quot;&gt;&#x9;&lt;span style=&quot;white-space: pre;&quot;&gt;&#x9;&lt;/span&gt;&lt;/span&gt;VARCHAR(30)" style="text;strokeColor=none;fillColor=none;spacingLeft=4;spacingRight=4;overflow=hidden;rotatable=0;points=[[0,0.5],[1,0.5]];portConstraint=eastwest;fontSize=12;whiteSpace=wrap;html=1;fontFamily=Architects Daughter;fontSource=https%3A%2F%2Ffonts.googleapis.com%2Fcss%3Ffamily%3DArchitects%2BDaughter;" vertex="1" parent="Q0sIho2IhB4wknDSnB5H-16">
          <mxGeometry y="70" width="290" height="30" as="geometry" />
        </mxCell>
        <mxCell id="Q0sIho2IhB4wknDSnB5H-19" value="last_name&lt;span style=&quot;white-space: pre;&quot;&gt;&#x9;&lt;span style=&quot;white-space: pre;&quot;&gt;&#x9;&lt;/span&gt;&lt;/span&gt;VARCHAR(30)" style="text;strokeColor=none;fillColor=none;spacingLeft=4;spacingRight=4;overflow=hidden;rotatable=0;points=[[0,0.5],[1,0.5]];portConstraint=eastwest;fontSize=12;whiteSpace=wrap;html=1;fontFamily=Architects Daughter;fontSource=https%3A%2F%2Ffonts.googleapis.com%2Fcss%3Ffamily%3DArchitects%2BDaughter;" vertex="1" parent="Q0sIho2IhB4wknDSnB5H-16">
          <mxGeometry y="100" width="290" height="30" as="geometry" />
        </mxCell>
        <mxCell id="Q0sIho2IhB4wknDSnB5H-59" value="password&lt;span style=&quot;white-space: pre;&quot;&gt;&#x9;&lt;span style=&quot;white-space: pre;&quot;&gt;&#x9;&lt;/span&gt;&lt;/span&gt;VARCHAR(50)" style="text;strokeColor=none;fillColor=none;spacingLeft=4;spacingRight=4;overflow=hidden;rotatable=0;points=[[0,0.5],[1,0.5]];portConstraint=eastwest;fontSize=12;whiteSpace=wrap;html=1;fontFamily=Architects Daughter;fontSource=https%3A%2F%2Ffonts.googleapis.com%2Fcss%3Ffamily%3DArchitects%2BDaughter;" vertex="1" parent="Q0sIho2IhB4wknDSnB5H-16">
          <mxGeometry y="130" width="290" height="30" as="geometry" />
        </mxCell>
        <mxCell id="Q0sIho2IhB4wknDSnB5H-20" value="email&lt;span style=&quot;white-space: pre;&quot;&gt;&#x9;&lt;/span&gt;&lt;span style=&quot;white-space: pre;&quot;&gt;&#x9;&lt;span style=&quot;white-space: pre;&quot;&gt;&#x9;&lt;/span&gt;&lt;/span&gt;VARCHAR(50) UNIQUE" style="text;strokeColor=none;fillColor=none;spacingLeft=4;spacingRight=4;overflow=hidden;rotatable=0;points=[[0,0.5],[1,0.5]];portConstraint=eastwest;fontSize=12;whiteSpace=wrap;html=1;fontFamily=Architects Daughter;fontSource=https%3A%2F%2Ffonts.googleapis.com%2Fcss%3Ffamily%3DArchitects%2BDaughter;" vertex="1" parent="Q0sIho2IhB4wknDSnB5H-16">
          <mxGeometry y="160" width="290" height="24" as="geometry" />
        </mxCell>
        <mxCell id="Q0sIho2IhB4wknDSnB5H-21" value="phone_number&lt;span style=&quot;white-space: pre;&quot;&gt;&#x9;&lt;/span&gt;VARCHAR(50) UNIQUE" style="text;strokeColor=none;fillColor=none;spacingLeft=4;spacingRight=4;overflow=hidden;rotatable=0;points=[[0,0.5],[1,0.5]];portConstraint=eastwest;fontSize=12;whiteSpace=wrap;html=1;fontFamily=Architects Daughter;fontSource=https%3A%2F%2Ffonts.googleapis.com%2Fcss%3Ffamily%3DArchitects%2BDaughter;" vertex="1" parent="Q0sIho2IhB4wknDSnB5H-16">
          <mxGeometry y="184" width="290" height="24" as="geometry" />
        </mxCell>
        <mxCell id="Q0sIho2IhB4wknDSnB5H-22" value="spécialisation&lt;span style=&quot;white-space: pre;&quot;&gt;&#x9;&lt;/span&gt;&lt;span style=&quot;white-space: pre;&quot;&gt;&#x9;&lt;/span&gt;VARCHAR(50)" style="text;strokeColor=none;fillColor=none;spacingLeft=4;spacingRight=4;overflow=hidden;rotatable=0;points=[[0,0.5],[1,0.5]];portConstraint=eastwest;fontSize=12;whiteSpace=wrap;html=1;fontFamily=Architects Daughter;fontSource=https%3A%2F%2Ffonts.googleapis.com%2Fcss%3Ffamily%3DArchitects%2BDaughter;" vertex="1" parent="Q0sIho2IhB4wknDSnB5H-16">
          <mxGeometry y="208" width="290" height="24" as="geometry" />
        </mxCell>
        <mxCell id="Q0sIho2IhB4wknDSnB5H-25" style="edgeStyle=orthogonalEdgeStyle;rounded=1;sketch=1;hachureGap=4;jiggle=2;curveFitting=1;orthogonalLoop=1;jettySize=auto;html=1;exitX=1;exitY=0.5;exitDx=0;exitDy=0;entryX=0;entryY=0.75;entryDx=0;entryDy=0;fontFamily=Architects Daughter;fontSource=https%3A%2F%2Ffonts.googleapis.com%2Fcss%3Ffamily%3DArchitects%2BDaughter;fontSize=12;startSize=8;endSize=8;jumpStyle=none;strokeColor=#6c8ebf;snapToPoint=1;fixDash=0;fillColor=#dae8fc;" edge="1" parent="1" source="Q0sIho2IhB4wknDSnB5H-17" target="Q0sIho2IhB4wknDSnB5H-12">
          <mxGeometry relative="1" as="geometry" />
        </mxCell>
        <mxCell id="Q0sIho2IhB4wknDSnB5H-47" value="Doctors_Patients" style="swimlane;fontStyle=0;childLayout=stackLayout;horizontal=1;startSize=26;horizontalStack=0;resizeParent=1;resizeParentMax=0;resizeLast=0;collapsible=1;marginBottom=0;align=center;fontSize=14;sketch=1;hachureGap=4;jiggle=2;curveFitting=1;fontFamily=Architects Daughter;fontSource=https%3A%2F%2Ffonts.googleapis.com%2Fcss%3Ffamily%3DArchitects%2BDaughter;fillColor=#ffe6cc;strokeColor=#d79b00;" vertex="1" parent="1">
          <mxGeometry x="780" y="70" width="288" height="86" as="geometry" />
        </mxCell>
        <mxCell id="Q0sIho2IhB4wknDSnB5H-48" value="&lt;u&gt;id_patient&lt;span style=&quot;white-space: pre;&quot;&gt;&#x9;&lt;span style=&quot;white-space: pre;&quot;&gt;&#x9;&lt;/span&gt;&lt;/span&gt;&lt;/u&gt;INTEGER" style="text;strokeColor=none;fillColor=none;spacingLeft=4;spacingRight=4;overflow=hidden;rotatable=0;points=[[0,0.5],[1,0.5]];portConstraint=eastwest;fontSize=12;whiteSpace=wrap;html=1;fontFamily=Architects Daughter;fontSource=https%3A%2F%2Ffonts.googleapis.com%2Fcss%3Ffamily%3DArchitects%2BDaughter;" vertex="1" parent="Q0sIho2IhB4wknDSnB5H-47">
          <mxGeometry y="26" width="288" height="30" as="geometry" />
        </mxCell>
        <mxCell id="Q0sIho2IhB4wknDSnB5H-54" value="&lt;u&gt;id_doctor&lt;span style=&quot;white-space: pre;&quot;&gt;&#x9;&lt;span style=&quot;white-space: pre;&quot;&gt;&#x9;&lt;/span&gt;&lt;/span&gt;&lt;/u&gt;INTEGER" style="text;strokeColor=none;fillColor=none;spacingLeft=4;spacingRight=4;overflow=hidden;rotatable=0;points=[[0,0.5],[1,0.5]];portConstraint=eastwest;fontSize=12;whiteSpace=wrap;html=1;fontFamily=Architects Daughter;fontSource=https%3A%2F%2Ffonts.googleapis.com%2Fcss%3Ffamily%3DArchitects%2BDaughter;" vertex="1" parent="Q0sIho2IhB4wknDSnB5H-47">
          <mxGeometry y="56" width="288" height="30" as="geometry" />
        </mxCell>
        <mxCell id="Q0sIho2IhB4wknDSnB5H-55" style="edgeStyle=orthogonalEdgeStyle;rounded=0;sketch=1;hachureGap=4;jiggle=2;curveFitting=1;orthogonalLoop=1;jettySize=auto;html=1;exitX=1;exitY=0.5;exitDx=0;exitDy=0;entryX=0;entryY=0.5;entryDx=0;entryDy=0;fontFamily=Architects Daughter;fontSource=https%3A%2F%2Ffonts.googleapis.com%2Fcss%3Ffamily%3DArchitects%2BDaughter;fontSize=12;startSize=8;endSize=8;fillColor=#ffe6cc;strokeColor=#d79b00;" edge="1" parent="1" source="Q0sIho2IhB4wknDSnB5H-17" target="Q0sIho2IhB4wknDSnB5H-54">
          <mxGeometry relative="1" as="geometry">
            <Array as="points">
              <mxPoint x="770" y="111" />
              <mxPoint x="770" y="141" />
            </Array>
          </mxGeometry>
        </mxCell>
        <mxCell id="Q0sIho2IhB4wknDSnB5H-60" value="Unworked_Days" style="swimlane;fontStyle=0;childLayout=stackLayout;horizontal=1;startSize=26;horizontalStack=0;resizeParent=1;resizeParentMax=0;resizeLast=0;collapsible=1;marginBottom=0;align=center;fontSize=14;sketch=1;hachureGap=4;jiggle=2;curveFitting=1;fontFamily=Architects Daughter;fontSource=https%3A%2F%2Ffonts.googleapis.com%2Fcss%3Ffamily%3DArchitects%2BDaughter;fillColor=#dae8fc;strokeColor=#6c8ebf;" vertex="1" parent="1">
          <mxGeometry x="380" y="450" width="288" height="182" as="geometry" />
        </mxCell>
        <mxCell id="Q0sIho2IhB4wknDSnB5H-61" value="&lt;u&gt;id&lt;span style=&quot;white-space: pre;&quot;&gt;&#x9;&lt;span style=&quot;white-space: pre;&quot;&gt;&#x9;&lt;span style=&quot;white-space: pre;&quot;&gt;&#x9;&lt;/span&gt;&lt;/span&gt;&lt;/span&gt;&lt;/u&gt;INTEGER AUTO-INCREMENT" style="text;strokeColor=none;fillColor=none;spacingLeft=4;spacingRight=4;overflow=hidden;rotatable=0;points=[[0,0.5],[1,0.5]];portConstraint=eastwest;fontSize=12;whiteSpace=wrap;html=1;fontFamily=Architects Daughter;fontSource=https%3A%2F%2Ffonts.googleapis.com%2Fcss%3Ffamily%3DArchitects%2BDaughter;" vertex="1" parent="Q0sIho2IhB4wknDSnB5H-60">
          <mxGeometry y="26" width="288" height="30" as="geometry" />
        </mxCell>
        <mxCell id="Q0sIho2IhB4wknDSnB5H-85" value="" style="text;strokeColor=none;fillColor=none;align=left;verticalAlign=middle;spacingTop=-1;spacingLeft=4;spacingRight=4;rotatable=0;labelPosition=right;points=[];portConstraint=eastwest;fontFamily=Architects Daughter;fontSource=https%3A%2F%2Ffonts.googleapis.com%2Fcss%3Ffamily%3DArchitects%2BDaughter;" vertex="1" parent="Q0sIho2IhB4wknDSnB5H-60">
          <mxGeometry y="56" width="288" height="14" as="geometry" />
        </mxCell>
        <mxCell id="Q0sIho2IhB4wknDSnB5H-62" value="id_doctor&lt;span style=&quot;text-decoration-line: underline; white-space: pre;&quot;&gt;&#x9;&lt;span style=&quot;white-space: pre;&quot;&gt;&#x9;&lt;/span&gt;&lt;/span&gt;INTEGER" style="text;strokeColor=none;fillColor=none;spacingLeft=4;spacingRight=4;overflow=hidden;rotatable=0;points=[[0,0.5],[1,0.5]];portConstraint=eastwest;fontSize=12;whiteSpace=wrap;html=1;fontFamily=Architects Daughter;fontSource=https%3A%2F%2Ffonts.googleapis.com%2Fcss%3Ffamily%3DArchitects%2BDaughter;" vertex="1" parent="Q0sIho2IhB4wknDSnB5H-60">
          <mxGeometry y="70" width="288" height="30" as="geometry" />
        </mxCell>
        <mxCell id="Q0sIho2IhB4wknDSnB5H-63" value="date_start&lt;span style=&quot;white-space: pre;&quot;&gt;&#x9;&lt;/span&gt;&lt;span style=&quot;white-space: pre;&quot;&gt;&#x9;&lt;/span&gt;DATE" style="text;strokeColor=none;fillColor=none;align=left;verticalAlign=top;spacingLeft=4;spacingRight=4;overflow=hidden;rotatable=0;points=[[0,0.5],[1,0.5]];portConstraint=eastwest;whiteSpace=wrap;html=1;fontFamily=Architects Daughter;fontSource=https%3A%2F%2Ffonts.googleapis.com%2Fcss%3Ffamily%3DArchitects%2BDaughter;" vertex="1" parent="Q0sIho2IhB4wknDSnB5H-60">
          <mxGeometry y="100" width="288" height="26" as="geometry" />
        </mxCell>
        <mxCell id="Q0sIho2IhB4wknDSnB5H-64" value="date-end&lt;span style=&quot;white-space: pre;&quot;&gt;&#x9;&lt;/span&gt;&lt;span style=&quot;white-space: pre;&quot;&gt;&#x9;&lt;/span&gt;DATE" style="text;strokeColor=none;fillColor=none;align=left;verticalAlign=top;spacingLeft=4;spacingRight=4;overflow=hidden;rotatable=0;points=[[0,0.5],[1,0.5]];portConstraint=eastwest;whiteSpace=wrap;html=1;fontFamily=Architects Daughter;fontSource=https%3A%2F%2Ffonts.googleapis.com%2Fcss%3Ffamily%3DArchitects%2BDaughter;" vertex="1" parent="Q0sIho2IhB4wknDSnB5H-60">
          <mxGeometry y="126" width="288" height="26" as="geometry" />
        </mxCell>
        <mxCell id="Q0sIho2IhB4wknDSnB5H-66" value="Type&lt;span style=&quot;white-space: pre;&quot;&gt;&#x9;&lt;/span&gt;&lt;span style=&quot;white-space: pre;&quot;&gt;&#x9;&lt;/span&gt;&lt;span style=&quot;white-space: pre;&quot;&gt;&#x9;&lt;/span&gt;VARCHAR(30)" style="text;strokeColor=none;fillColor=none;spacingLeft=4;spacingRight=4;overflow=hidden;rotatable=0;points=[[0,0.5],[1,0.5]];portConstraint=eastwest;fontSize=12;whiteSpace=wrap;html=1;fontFamily=Architects Daughter;fontSource=https%3A%2F%2Ffonts.googleapis.com%2Fcss%3Ffamily%3DArchitects%2BDaughter;" vertex="1" parent="Q0sIho2IhB4wknDSnB5H-60">
          <mxGeometry y="152" width="288" height="30" as="geometry" />
        </mxCell>
        <mxCell id="Q0sIho2IhB4wknDSnB5H-67" value="Weekly_Worked_Days" style="swimlane;fontStyle=0;childLayout=stackLayout;horizontal=1;startSize=26;horizontalStack=0;resizeParent=1;resizeParentMax=0;resizeLast=0;collapsible=1;marginBottom=0;align=center;fontSize=14;sketch=1;hachureGap=4;jiggle=2;curveFitting=1;fontFamily=Architects Daughter;fontSource=https%3A%2F%2Ffonts.googleapis.com%2Fcss%3Ffamily%3DArchitects%2BDaughter;fillColor=#dae8fc;strokeColor=#6c8ebf;" vertex="1" parent="1">
          <mxGeometry x="40" y="260" width="288" height="100" as="geometry" />
        </mxCell>
        <mxCell id="Q0sIho2IhB4wknDSnB5H-68" value="&lt;u&gt;id&lt;span style=&quot;white-space: pre;&quot;&gt;&#x9;&lt;span style=&quot;white-space: pre;&quot;&gt;&#x9;&lt;span style=&quot;white-space: pre;&quot;&gt;&#x9;&lt;/span&gt;&lt;/span&gt;&lt;/span&gt;&lt;/u&gt;INTEGER AUTO-INCREMENT" style="text;strokeColor=none;fillColor=none;spacingLeft=4;spacingRight=4;overflow=hidden;rotatable=0;points=[[0,0.5],[1,0.5]];portConstraint=eastwest;fontSize=12;whiteSpace=wrap;html=1;fontFamily=Architects Daughter;fontSource=https%3A%2F%2Ffonts.googleapis.com%2Fcss%3Ffamily%3DArchitects%2BDaughter;" vertex="1" parent="Q0sIho2IhB4wknDSnB5H-67">
          <mxGeometry y="26" width="288" height="30" as="geometry" />
        </mxCell>
        <mxCell id="Q0sIho2IhB4wknDSnB5H-84" value="" style="text;strokeColor=none;fillColor=none;align=left;verticalAlign=middle;spacingTop=-1;spacingLeft=4;spacingRight=4;rotatable=0;labelPosition=right;points=[];portConstraint=eastwest;fontFamily=Architects Daughter;fontSource=https%3A%2F%2Ffonts.googleapis.com%2Fcss%3Ffamily%3DArchitects%2BDaughter;" vertex="1" parent="Q0sIho2IhB4wknDSnB5H-67">
          <mxGeometry y="56" width="288" height="14" as="geometry" />
        </mxCell>
        <mxCell id="Q0sIho2IhB4wknDSnB5H-69" value="name&lt;span style=&quot;white-space: pre;&quot;&gt;&#x9;&lt;/span&gt;&lt;span style=&quot;white-space: pre;&quot;&gt;&#x9;&lt;/span&gt;&lt;span style=&quot;white-space: pre;&quot;&gt;&#x9;&lt;/span&gt;VARCHAR(10) UNIQUE" style="text;strokeColor=none;fillColor=none;spacingLeft=4;spacingRight=4;overflow=hidden;rotatable=0;points=[[0,0.5],[1,0.5]];portConstraint=eastwest;fontSize=12;whiteSpace=wrap;html=1;fontFamily=Architects Daughter;fontSource=https%3A%2F%2Ffonts.googleapis.com%2Fcss%3Ffamily%3DArchitects%2BDaughter;" vertex="1" parent="Q0sIho2IhB4wknDSnB5H-67">
          <mxGeometry y="70" width="288" height="30" as="geometry" />
        </mxCell>
        <mxCell id="Q0sIho2IhB4wknDSnB5H-73" value="Doctors_Weekly_Worked_Days" style="swimlane;fontStyle=0;childLayout=stackLayout;horizontal=1;startSize=26;horizontalStack=0;resizeParent=1;resizeParentMax=0;resizeLast=0;collapsible=1;marginBottom=0;align=center;fontSize=14;sketch=1;hachureGap=4;jiggle=2;curveFitting=1;fontFamily=Architects Daughter;fontSource=https%3A%2F%2Ffonts.googleapis.com%2Fcss%3Ffamily%3DArchitects%2BDaughter;fillColor=#ffe6cc;strokeColor=#d79b00;" vertex="1" parent="1">
          <mxGeometry x="40" y="70" width="288" height="86" as="geometry" />
        </mxCell>
        <mxCell id="Q0sIho2IhB4wknDSnB5H-75" value="&lt;u&gt;id_doctor&lt;span style=&quot;white-space: pre;&quot;&gt;&#x9;&lt;span style=&quot;white-space: pre;&quot;&gt;&#x9;&lt;/span&gt;&lt;/span&gt;&lt;/u&gt;INTEGER" style="text;strokeColor=none;fillColor=none;spacingLeft=4;spacingRight=4;overflow=hidden;rotatable=0;points=[[0,0.5],[1,0.5]];portConstraint=eastwest;fontSize=12;whiteSpace=wrap;html=1;fontFamily=Architects Daughter;fontSource=https%3A%2F%2Ffonts.googleapis.com%2Fcss%3Ffamily%3DArchitects%2BDaughter;" vertex="1" parent="Q0sIho2IhB4wknDSnB5H-73">
          <mxGeometry y="26" width="288" height="30" as="geometry" />
        </mxCell>
        <mxCell id="Q0sIho2IhB4wknDSnB5H-74" value="&lt;u&gt;id_day&lt;span style=&quot;white-space: pre;&quot;&gt;&#x9;&lt;/span&gt;&lt;span style=&quot;white-space: pre;&quot;&gt;&#x9;&lt;span style=&quot;white-space: pre;&quot;&gt;&#x9;&lt;/span&gt;&lt;/span&gt;&lt;/u&gt;INTEGER" style="text;strokeColor=none;fillColor=none;spacingLeft=4;spacingRight=4;overflow=hidden;rotatable=0;points=[[0,0.5],[1,0.5]];portConstraint=eastwest;fontSize=12;whiteSpace=wrap;html=1;fontFamily=Architects Daughter;fontSource=https%3A%2F%2Ffonts.googleapis.com%2Fcss%3Ffamily%3DArchitects%2BDaughter;" vertex="1" parent="Q0sIho2IhB4wknDSnB5H-73">
          <mxGeometry y="56" width="288" height="30" as="geometry" />
        </mxCell>
        <mxCell id="Q0sIho2IhB4wknDSnB5H-78" style="edgeStyle=none;curved=1;rounded=0;sketch=1;hachureGap=4;jiggle=2;curveFitting=1;orthogonalLoop=1;jettySize=auto;html=1;exitX=0;exitY=0.5;exitDx=0;exitDy=0;entryX=1;entryY=0.5;entryDx=0;entryDy=0;fontFamily=Architects Daughter;fontSource=https%3A%2F%2Ffonts.googleapis.com%2Fcss%3Ffamily%3DArchitects%2BDaughter;fontSize=12;startSize=8;endSize=8;fillColor=#ffe6cc;strokeColor=#d79b00;" edge="1" parent="1" source="Q0sIho2IhB4wknDSnB5H-17" target="Q0sIho2IhB4wknDSnB5H-75">
          <mxGeometry relative="1" as="geometry" />
        </mxCell>
        <mxCell id="Q0sIho2IhB4wknDSnB5H-80" style="edgeStyle=orthogonalEdgeStyle;rounded=0;sketch=1;hachureGap=4;jiggle=2;curveFitting=1;orthogonalLoop=1;jettySize=auto;html=1;exitX=0;exitY=0.5;exitDx=0;exitDy=0;entryX=0;entryY=0.5;entryDx=0;entryDy=0;fontFamily=Architects Daughter;fontSource=https%3A%2F%2Ffonts.googleapis.com%2Fcss%3Ffamily%3DArchitects%2BDaughter;fontSize=12;startSize=8;endSize=8;fillColor=#dae8fc;strokeColor=#6c8ebf;" edge="1" parent="1" source="Q0sIho2IhB4wknDSnB5H-17" target="Q0sIho2IhB4wknDSnB5H-62">
          <mxGeometry relative="1" as="geometry" />
        </mxCell>
        <mxCell id="Q0sIho2IhB4wknDSnB5H-81" style="edgeStyle=orthogonalEdgeStyle;rounded=0;sketch=1;hachureGap=4;jiggle=2;curveFitting=1;orthogonalLoop=1;jettySize=auto;html=1;exitX=1;exitY=0.5;exitDx=0;exitDy=0;entryX=1;entryY=0.5;entryDx=0;entryDy=0;fontFamily=Architects Daughter;fontSource=https%3A%2F%2Ffonts.googleapis.com%2Fcss%3Ffamily%3DArchitects%2BDaughter;fontSize=12;startSize=8;endSize=8;fillColor=#dae8fc;strokeColor=#6c8ebf;" edge="1" parent="1" source="Q0sIho2IhB4wknDSnB5H-3" target="Q0sIho2IhB4wknDSnB5H-14">
          <mxGeometry relative="1" as="geometry" />
        </mxCell>
        <mxCell id="Q0sIho2IhB4wknDSnB5H-82" style="edgeStyle=orthogonalEdgeStyle;rounded=0;sketch=1;hachureGap=4;jiggle=2;curveFitting=1;orthogonalLoop=1;jettySize=auto;html=1;exitX=1;exitY=0.5;exitDx=0;exitDy=0;entryX=1;entryY=0.5;entryDx=0;entryDy=0;fontFamily=Architects Daughter;fontSource=https%3A%2F%2Ffonts.googleapis.com%2Fcss%3Ffamily%3DArchitects%2BDaughter;fontSize=12;startSize=8;endSize=8;fillColor=#ffe6cc;strokeColor=#d79b00;" edge="1" parent="1" source="Q0sIho2IhB4wknDSnB5H-3" target="Q0sIho2IhB4wknDSnB5H-48">
          <mxGeometry relative="1" as="geometry">
            <Array as="points">
              <mxPoint x="1139" y="491" />
              <mxPoint x="1139" y="111" />
            </Array>
          </mxGeometry>
        </mxCell>
        <mxCell id="Q0sIho2IhB4wknDSnB5H-83" style="edgeStyle=orthogonalEdgeStyle;rounded=0;sketch=1;hachureGap=4;jiggle=2;curveFitting=1;orthogonalLoop=1;jettySize=auto;html=1;exitX=0;exitY=0.5;exitDx=0;exitDy=0;entryX=0;entryY=0.5;entryDx=0;entryDy=0;fontFamily=Architects Daughter;fontSource=https%3A%2F%2Ffonts.googleapis.com%2Fcss%3Ffamily%3DArchitects%2BDaughter;fontSize=12;startSize=8;endSize=8;fillColor=#ffe6cc;strokeColor=#d79b00;" edge="1" parent="1" source="Q0sIho2IhB4wknDSnB5H-68" target="Q0sIho2IhB4wknDSnB5H-74">
          <mxGeometry relative="1" as="geometry" />
        </mxCell>
      </root>
    </mxGraphModel>
  </diagram>
</mxfile>
